<svg xmlns="http://www.w3.org/2000/svg" viewBox="0 0 96 96" role="img" aria-labelledby="title">
  <title id="title">Bug monster</title>
  <path d="M18 48c0-21 13-34 30-34s30 13 30 34-13 34-30 34-30-13-30-34z" fill="#ef4444"/>
  <path d="M30 16 20 6M66 16 76 6M18 45H6M78 45h12M22 64 10 76M74 64l12 12" stroke="#7f1d1d" stroke-width="6" stroke-linecap="round"/>
  <circle cx="38" cy="40" r="6" fill="#fff"/>
  <circle cx="58" cy="40" r="6" fill="#fff"/>
  <circle cx="40" cy="41" r="3" fill="#111827"/>
  <circle cx="56" cy="41" r="3" fill="#111827"/>
  <path d="M34 61c8 6 20 6 28 0" fill="none" stroke="#7f1d1d" stroke-width="5" stroke-linecap="round"/>
  <path d="M48 18v58M22 48h52" stroke="#fca5a5" stroke-width="4" opacity=".55"/>
</svg>
