<svg xmlns="http://www.w3.org/2000/svg" viewBox="0 0 96 120" role="img" aria-labelledby="title">
  <title id="title">Developer hero</title>
  <rect x="30" y="46" width="36" height="44" rx="10" fill="#2563eb"/>
  <rect x="24" y="84" width="18" height="28" rx="6" fill="#1f2937"/>
  <rect x="54" y="84" width="18" height="28" rx="6" fill="#1f2937"/>
  <circle cx="48" cy="28" r="22" fill="#f5cfa9"/>
  <path d="M26 24c5-16 37-21 45 2-10-5-23-5-45-2z" fill="#2f241d"/>
  <rect x="36" y="36" width="24" height="6" rx="3" fill="#111827"/>
  <circle cx="40" cy="31" r="3" fill="#111827"/>
  <circle cx="56" cy="31" r="3" fill="#111827"/>
  <rect x="8" y="62" width="32" height="22" rx="4" fill="#475569"/>
  <rect x="12" y="66" width="24" height="14" rx="2" fill="#dbeafe"/>
  <path d="M67 52l17 16-8 8-15-18z" fill="#f5cfa9"/>
</svg>
